<svg width="28" height="28" viewBox="0 0 28 28" fill="none" xmlns="http://www.w3.org/2000/svg">
<path d="M14 2.33301C11.7518 2.33307 9.55158 2.98267 7.66391 4.20369C5.77623 5.4247 4.28154 7.16511 3.35965 9.21555C2.43775 11.266 2.12792 13.5391 2.46742 15.7615C2.80692 17.9839 3.7813 20.0608 5.27333 21.7425C5.38236 21.8652 5.51603 21.9635 5.66561 22.031C5.81519 22.0985 5.97733 22.1337 6.14144 22.1344C16.1002 22.1745 11.63 22.1659 21.83 22.1628C21.994 22.163 22.1563 22.1284 22.3061 22.0615C22.4559 21.9945 22.5899 21.8967 22.6992 21.7743C24.1999 20.0954 25.1826 18.018 25.5287 15.7929C25.8748 13.5678 25.5696 11.29 24.6498 9.23458C23.7301 7.17911 22.2351 5.43374 20.3454 4.2091C18.4556 2.98446 16.2519 2.33288 14 2.33301ZM19.3559 11.4407L17.3166 12.934C17.4333 13.2774 17.4952 13.637 17.5 13.9997C17.5032 14.7824 17.2451 15.5437 16.7666 16.1631C16.2881 16.7824 15.6165 17.2243 14.8583 17.4187C14.1001 17.6131 13.2988 17.5488 12.5813 17.2361C11.8638 16.9234 11.2712 16.3802 10.8974 15.6925C10.5237 15.0048 10.3902 14.212 10.5181 13.4399C10.646 12.6677 11.028 11.9603 11.6035 11.4299C12.1791 10.8995 12.9152 10.5763 13.6952 10.5117C14.4752 10.447 15.2545 10.6446 15.9095 11.0731L17.9774 9.55852C18.2273 9.38175 18.5366 9.31026 18.8387 9.35948C19.1409 9.40869 19.4115 9.57466 19.5924 9.82161C19.7732 10.0685 19.8498 10.3767 19.8056 10.6796C19.7614 10.9824 19.5999 11.2558 19.3559 11.4407Z" fill="#A5A5A5"/>
<path d="M14 15.1664C14.6444 15.1664 15.1667 14.644 15.1667 13.9997C15.1667 13.3553 14.6444 12.833 14 12.833C13.3557 12.833 12.8334 13.3553 12.8334 13.9997C12.8334 14.644 13.3557 15.1664 14 15.1664Z" fill="#A5A5A5"/>
</svg>
