<svg width="22" height="24" viewBox="0 0 22 24" fill="none" xmlns="http://www.w3.org/2000/svg">
<path d="M18 0.333008H4C3.07258 0.335716 2.18391 0.705335 1.52812 1.36113C0.872327 2.01692 0.502709 2.90558 0.5 3.83301V20.1663C0.502709 21.0938 0.872327 21.9824 1.52812 22.6382C2.18391 23.294 3.07258 23.6636 4 23.6663H18C18.9274 23.6636 19.8161 23.294 20.4719 22.6382C21.1277 21.9824 21.4973 21.0938 21.5 20.1663V3.83301C21.4973 2.90558 21.1277 2.01692 20.4719 1.36113C19.8161 0.705335 18.9274 0.335716 18 0.333008ZM11 15.4997C10.1749 15.501 9.37597 15.2103 8.74466 14.679C8.11334 14.1478 7.69037 13.4103 7.55065 12.5971C7.41093 11.7839 7.56347 10.9476 7.98126 10.2361C8.39904 9.52456 9.05513 8.98385 9.83333 8.70968V4.99967H2.83333V3.83301C2.83426 3.52387 2.95747 3.22766 3.17606 3.00907C3.39465 2.79048 3.69086 2.66726 4 2.66634H18C18.3091 2.66726 18.6053 2.79048 18.8239 3.00907C19.0425 3.22766 19.1657 3.52387 19.1667 3.83301V4.99967H12.1667V8.70968C12.9449 8.98385 13.601 9.52456 14.0187 10.2361C14.4365 10.9476 14.5891 11.7839 14.4493 12.5971C14.3096 13.4103 13.8867 14.1478 13.2553 14.679C12.624 15.2103 11.8251 15.501 11 15.4997Z" fill="#A5A5A5"/>
</svg>
