<svg width="22" height="19" viewBox="0 0 22 19" fill="none" xmlns="http://www.w3.org/2000/svg">
<path d="M20.0001 6.99984H6.82806L10.4141 3.41384C10.7784 3.03663 10.98 2.53143 10.9754 2.00704C10.9709 1.48264 10.7605 0.981017 10.3897 0.6102C10.0189 0.239384 9.51726 0.0290465 8.99286 0.0244897C8.46847 0.0199328 7.96327 0.221521 7.58606 0.585838L0.586061 7.58584C0.211119 7.96089 0.000488281 8.46951 0.000488281 8.99984C0.000488281 9.53017 0.211119 10.0388 0.586061 10.4138L7.58606 17.4138C7.77056 17.6049 7.99124 17.7572 8.23525 17.862C8.47926 17.9669 8.7417 18.022 9.00726 18.0243C9.27282 18.0266 9.53618 17.976 9.78197 17.8755C10.0278 17.7749 10.2511 17.6264 10.4389 17.4386C10.6266 17.2508 10.7751 17.0275 10.8757 16.7817C10.9763 16.536 11.0269 16.2726 11.0246 16.007C11.0223 15.7415 10.9671 15.479 10.8623 15.235C10.7574 14.991 10.6051 14.7703 10.4141 14.5858L6.82806 10.9998H20.0001C20.5305 10.9998 21.0392 10.7891 21.4143 10.4141C21.7893 10.039 22.0001 9.53027 22.0001 8.99984C22.0001 8.46941 21.7893 7.9607 21.4143 7.58562C21.0392 7.21055 20.5305 6.99984 20.0001 6.99984Z" fill="#202020"/>
</svg>
