<svg width="30" height="30" viewBox="0 0 30 30" fill="none" xmlns="http://www.w3.org/2000/svg">
<path d="M0.0849611 14.9992C0.084961 21.9403 5.07398 28.1328 11.8676 29.5847C15.2622 30.3102 18.8718 29.8215 21.9433 28.2031C24.8993 26.6454 27.2884 24.0918 28.6423 21.0366C30.051 17.8587 30.2965 14.2103 29.3358 10.8701C28.4094 7.64773 26.376 4.79051 23.6465 2.84529C17.94 -1.22185 9.92468 -0.678072 4.81102 4.10689C1.81434 6.91091 0.0849612 10.8944 0.0849611 14.9992ZM7.85444 14.1936L12.0196 10.0288C13.0593 8.98913 14.6716 10.6015 13.6316 11.6411L11.5393 13.733L21.2133 13.733C21.9034 13.733 22.4795 14.3095 22.4795 14.9996C22.4795 15.6897 21.9034 16.2661 21.2133 16.2661L11.491 16.2661L13.5423 18.3671C14.5679 19.4167 12.9407 21.0142 11.9109 19.9597L7.84494 15.7957C7.4087 15.3496 7.41288 14.6352 7.85444 14.1936Z" fill="#A5A5A5"/>
</svg>
