<svg width="22" height="19" viewBox="0 0 22 19" fill="none" xmlns="http://www.w3.org/2000/svg">
<path d="M20.0002 6.99984H6.82818L10.4142 3.41384C10.7785 3.03663 10.9801 2.53143 10.9755 2.00704C10.971 1.48264 10.7606 0.981017 10.3898 0.6102C10.019 0.239384 9.51738 0.0290465 8.99299 0.0244897C8.46859 0.0199328 7.96339 0.221521 7.58618 0.585838L0.586183 7.58584C0.211241 7.96089 0.000610352 8.46951 0.000610352 8.99984C0.000610352 9.53017 0.211241 10.0388 0.586183 10.4138L7.58618 17.4138C7.77068 17.6049 7.99137 17.7572 8.23537 17.862C8.47938 17.9669 8.74182 18.022 9.00738 18.0243C9.27294 18.0266 9.5363 17.976 9.78209 17.8755C10.0279 17.7749 10.2512 17.6264 10.439 17.4386C10.6268 17.2508 10.7753 17.0275 10.8758 16.7817C10.9764 16.536 11.027 16.2726 11.0247 16.007C11.0224 15.7415 10.9672 15.479 10.8624 15.235C10.7576 14.991 10.6052 14.7703 10.4142 14.5858L6.82818 10.9998H20.0002C20.5306 10.9998 21.0393 10.7891 21.4144 10.4141C21.7895 10.039 22.0002 9.53027 22.0002 8.99984C22.0002 8.46941 21.7895 7.9607 21.4144 7.58562C21.0393 7.21055 20.5306 6.99984 20.0002 6.99984Z" fill="#202020"/>
</svg>
