<svg width="245" height="259" viewBox="0 0 245 259" fill="none" xmlns="http://www.w3.org/2000/svg">
<g filter="url(#filter0_d)">
<rect x="46" y="14" width="153" height="203" rx="32" fill="url(#paint0_linear)"/>
</g>
<rect y="14" width="245" height="203" rx="32" fill="url(#paint1_linear)"/>
<mask id="mask0" mask-type="alpha" maskUnits="userSpaceOnUse" x="0" y="14" width="245" height="203">
<rect y="14" width="245" height="203" rx="32" fill="url(#paint2_linear)"/>
</mask>
<g mask="url(#mask0)">
</g>
<mask id="mask1" mask-type="alpha" maskUnits="userSpaceOnUse" x="0" y="14" width="245" height="203">
<rect y="14" width="245" height="203" rx="32" fill="url(#paint3_linear)"/>
</mask>
<g mask="url(#mask1)">
<circle cx="232" cy="177" r="85" fill="url(#paint4_linear)" fill-opacity="0.6"/>
</g>
<path d="M26.75 48.4032C26.75 49.1782 26.1344 49.8065 25.375 49.8065C24.6156 49.8065 24 49.1782 24 48.4032C24 47.6282 24.6156 47 25.375 47C26.1344 47 26.75 47.6282 26.75 48.4032Z" fill="white"/>
<path d="M33.1667 48.4032C33.1667 49.1782 32.5511 49.8065 31.7917 49.8065C31.0323 49.8065 30.4167 49.1782 30.4167 48.4032C30.4167 47.6282 31.0323 47 31.7917 47C32.5511 47 33.1667 47.6282 33.1667 48.4032Z" fill="white"/>
<path d="M39.5833 48.4032C39.5833 49.1782 38.9677 49.8065 38.2083 49.8065C37.4489 49.8065 36.8333 49.1782 36.8333 48.4032C36.8333 47.6282 37.4489 47 38.2083 47C38.9677 47 39.5833 47.6282 39.5833 48.4032Z" fill="white"/>
<path d="M46 48.4032C46 49.1782 45.3844 49.8065 44.625 49.8065C43.8656 49.8065 43.25 49.1782 43.25 48.4032C43.25 47.6282 43.8656 47 44.625 47C45.3844 47 46 47.6282 46 48.4032Z" fill="white"/>
<path d="M26.75 54.9516C26.75 55.7266 26.1344 56.3548 25.375 56.3548C24.6156 56.3548 24 55.7266 24 54.9516C24 54.1766 24.6156 53.5484 25.375 53.5484C26.1344 53.5484 26.75 54.1766 26.75 54.9516Z" fill="white"/>
<path d="M33.1667 54.9516C33.1667 55.7266 32.5511 56.3548 31.7917 56.3548C31.0323 56.3548 30.4167 55.7266 30.4167 54.9516C30.4167 54.1766 31.0323 53.5484 31.7917 53.5484C32.5511 53.5484 33.1667 54.1766 33.1667 54.9516Z" fill="white"/>
<path d="M39.5833 54.9516C39.5833 55.7266 38.9677 56.3548 38.2083 56.3548C37.4489 56.3548 36.8333 55.7266 36.8333 54.9516C36.8333 54.1766 37.4489 53.5484 38.2083 53.5484C38.9677 53.5484 39.5833 54.1766 39.5833 54.9516Z" fill="white"/>
<path d="M46 54.9516C46 55.7266 45.3844 56.3548 44.625 56.3548C43.8656 56.3548 43.25 55.7266 43.25 54.9516C43.25 54.1766 43.8656 53.5484 44.625 53.5484C45.3844 53.5484 46 54.1766 46 54.9516Z" fill="white"/>
<path d="M26.75 61.5C26.75 62.275 26.1344 62.9032 25.375 62.9032C24.6156 62.9032 24 62.275 24 61.5C24 60.725 24.6156 60.0968 25.375 60.0968C26.1344 60.0968 26.75 60.725 26.75 61.5Z" fill="white"/>
<path d="M33.1667 61.5C33.1667 62.275 32.5511 62.9032 31.7917 62.9032C31.0323 62.9032 30.4167 62.275 30.4167 61.5C30.4167 60.725 31.0323 60.0968 31.7917 60.0968C32.5511 60.0968 33.1667 60.725 33.1667 61.5Z" fill="white"/>
<path d="M39.5833 61.5C39.5833 62.275 38.9677 62.9032 38.2083 62.9032C37.4489 62.9032 36.8333 62.275 36.8333 61.5C36.8333 60.725 37.4489 60.0968 38.2083 60.0968C38.9677 60.0968 39.5833 60.725 39.5833 61.5Z" fill="white"/>
<path d="M46 61.5C46 62.275 45.3844 62.9032 44.625 62.9032C43.8656 62.9032 43.25 62.275 43.25 61.5C43.25 60.725 43.8656 60.0968 44.625 60.0968C45.3844 60.0968 46 60.725 46 61.5Z" fill="white"/>
<path d="M26.75 68.0484C26.75 68.8234 26.1344 69.4516 25.375 69.4516C24.6156 69.4516 24 68.8234 24 68.0484C24 67.2734 24.6156 66.6452 25.375 66.6452C26.1344 66.6452 26.75 67.2734 26.75 68.0484Z" fill="white"/>
<path d="M33.1667 68.0484C33.1667 68.8234 32.5511 69.4516 31.7917 69.4516C31.0323 69.4516 30.4167 68.8234 30.4167 68.0484C30.4167 67.2734 31.0323 66.6452 31.7917 66.6452C32.5511 66.6452 33.1667 67.2734 33.1667 68.0484Z" fill="white"/>
<path d="M39.5833 68.0484C39.5833 68.8234 38.9677 69.4516 38.2083 69.4516C37.4489 69.4516 36.8333 68.8234 36.8333 68.0484C36.8333 67.2734 37.4489 66.6452 38.2083 66.6452C38.9677 66.6452 39.5833 67.2734 39.5833 68.0484Z" fill="white"/>
<path d="M46 68.0484C46 68.8234 45.3844 69.4516 44.625 69.4516C43.8656 69.4516 43.25 68.8234 43.25 68.0484C43.25 67.2734 43.8656 66.6452 44.625 66.6452C45.3844 66.6452 46 67.2734 46 68.0484Z" fill="white"/>
<path d="M26.75 74.5968C26.75 75.3718 26.1344 76 25.375 76C24.6156 76 24 75.3718 24 74.5968C24 73.8218 24.6156 73.1935 25.375 73.1935C26.1344 73.1935 26.75 73.8218 26.75 74.5968Z" fill="white"/>
<path d="M33.1667 74.5968C33.1667 75.3718 32.5511 76 31.7917 76C31.0323 76 30.4167 75.3718 30.4167 74.5968C30.4167 73.8218 31.0323 73.1935 31.7917 73.1935C32.5511 73.1935 33.1667 73.8218 33.1667 74.5968Z" fill="white"/>
<path d="M39.5833 74.5968C39.5833 75.3718 38.9677 76 38.2083 76C37.4489 76 36.8333 75.3718 36.8333 74.5968C36.8333 73.8218 37.4489 73.1935 38.2083 73.1935C38.9677 73.1935 39.5833 73.8218 39.5833 74.5968Z" fill="white"/>
<path d="M46 74.5968C46 75.3718 45.3844 76 44.625 76C43.8656 76 43.25 75.3718 43.25 74.5968C43.25 73.8218 43.8656 73.1935 44.625 73.1935C45.3844 73.1935 46 73.8218 46 74.5968Z" fill="white"/>
<path d="M50.725 170.149C50.7248 170.149 50.7245 170.148 50.7242 170.148L45.8256 165.273C45.4586 164.908 44.865 164.909 44.4997 165.276C44.1345 165.643 44.1359 166.237 44.5028 166.602L47.7918 169.875H27.9375C27.4197 169.875 27 170.295 27 170.812C27 171.33 27.4197 171.75 27.9375 171.75H47.7917L44.5029 175.023C44.1359 175.388 44.1345 175.982 44.4998 176.349C44.865 176.716 45.4587 176.717 45.8256 176.352L50.7242 171.477C50.7245 171.477 50.7248 171.476 50.7251 171.476C51.0923 171.11 51.0911 170.514 50.725 170.149Z" fill="white"/>
<path d="M28.488 89.864C30.776 89.864 32.504 90.184 33.672 90.824C34.84 91.464 35.424 92.592 35.424 94.208C35.424 95.184 35.192 96.008 34.728 96.68C34.28 97.352 33.632 97.76 32.784 97.904V98.024C33.36 98.136 33.88 98.336 34.344 98.624C34.808 98.912 35.176 99.328 35.448 99.872C35.72 100.416 35.856 101.136 35.856 102.032C35.856 103.584 35.296 104.8 34.176 105.68C33.056 106.56 31.52 107 29.568 107H23.16V89.864H28.488ZM28.896 96.656C29.952 96.656 30.68 96.488 31.08 96.152C31.496 95.816 31.704 95.328 31.704 94.688C31.704 94.032 31.464 93.56 30.984 93.272C30.504 92.984 29.744 92.84 28.704 92.84H26.784V96.656H28.896ZM26.784 99.536V104H29.16C30.248 104 31.008 103.792 31.44 103.376C31.872 102.944 32.088 102.376 32.088 101.672C32.088 101.032 31.864 100.52 31.416 100.136C30.984 99.736 30.192 99.536 29.04 99.536H26.784ZM44.325 107.24C42.373 107.24 40.861 106.704 39.789 105.632C38.733 104.544 38.205 102.84 38.205 100.52C38.205 98.92 38.477 97.616 39.021 96.608C39.565 95.6 40.317 94.856 41.277 94.376C42.253 93.896 43.373 93.656 44.637 93.656C45.533 93.656 46.309 93.744 46.965 93.92C47.637 94.096 48.221 94.304 48.717 94.544L47.661 97.304C47.101 97.08 46.573 96.896 46.077 96.752C45.597 96.608 45.117 96.536 44.637 96.536C42.781 96.536 41.853 97.856 41.853 100.496C41.853 101.808 42.093 102.776 42.573 103.4C43.069 104.024 43.757 104.336 44.637 104.336C45.389 104.336 46.053 104.24 46.629 104.048C47.205 103.84 47.765 103.56 48.309 103.208V106.256C47.765 106.608 47.189 106.856 46.581 107C45.989 107.16 45.237 107.24 44.325 107.24ZM56.7251 93.656C58.5331 93.656 59.9651 94.176 61.0211 95.216C62.0771 96.24 62.6051 97.704 62.6051 99.608V101.336H54.1571C54.1891 102.344 54.4851 103.136 55.0451 103.712C55.6211 104.288 56.4131 104.576 57.4211 104.576C58.2691 104.576 59.0371 104.496 59.7251 104.336C60.4131 104.16 61.1251 103.896 61.8611 103.544V106.304C61.2211 106.624 60.5411 106.856 59.8211 107C59.1171 107.16 58.2611 107.24 57.2531 107.24C55.9411 107.24 54.7811 107 53.7731 106.52C52.7651 106.024 51.9731 105.28 51.3971 104.288C50.8211 103.296 50.5331 102.048 50.5331 100.544C50.5331 99.008 50.7891 97.736 51.3011 96.728C51.8291 95.704 52.5571 94.936 53.4851 94.424C54.4131 93.912 55.4931 93.656 56.7251 93.656ZM56.7491 96.2C56.0611 96.2 55.4851 96.424 55.0211 96.872C54.5731 97.32 54.3091 98.016 54.2291 98.96H59.2451C59.2291 98.16 59.0211 97.504 58.6211 96.992C58.2211 96.464 57.5971 96.2 56.7491 96.2ZM76.1063 107.24C74.1543 107.24 72.6423 106.704 71.5703 105.632C70.5143 104.544 69.9863 102.84 69.9863 100.52C69.9863 98.92 70.2583 97.616 70.8023 96.608C71.3463 95.6 72.0983 94.856 73.0583 94.376C74.0343 93.896 75.1543 93.656 76.4183 93.656C77.3143 93.656 78.0903 93.744 78.7463 93.92C79.4183 94.096 80.0023 94.304 80.4983 94.544L79.4423 97.304C78.8823 97.08 78.3543 96.896 77.8583 96.752C77.3783 96.608 76.8983 96.536 76.4183 96.536C74.5623 96.536 73.6343 97.856 73.6343 100.496C73.6343 101.808 73.8743 102.776 74.3543 103.4C74.8503 104.024 75.5383 104.336 76.4183 104.336C77.1703 104.336 77.8343 104.24 78.4103 104.048C78.9863 103.84 79.5463 103.56 80.0903 103.208V106.256C79.5463 106.608 78.9703 106.856 78.3623 107C77.7703 107.16 77.0183 107.24 76.1063 107.24ZM88.5064 93.656C90.3144 93.656 91.7464 94.176 92.8024 95.216C93.8584 96.24 94.3864 97.704 94.3864 99.608V101.336H85.9384C85.9704 102.344 86.2664 103.136 86.8264 103.712C87.4024 104.288 88.1944 104.576 89.2024 104.576C90.0504 104.576 90.8184 104.496 91.5064 104.336C92.1944 104.16 92.9064 103.896 93.6424 103.544V106.304C93.0024 106.624 92.3224 106.856 91.6024 107C90.8984 107.16 90.0424 107.24 89.0344 107.24C87.7224 107.24 86.5624 107 85.5544 106.52C84.5464 106.024 83.7544 105.28 83.1784 104.288C82.6024 103.296 82.3144 102.048 82.3144 100.544C82.3144 99.008 82.5704 97.736 83.0824 96.728C83.6104 95.704 84.3384 94.936 85.2664 94.424C86.1944 93.912 87.2744 93.656 88.5064 93.656ZM88.5304 96.2C87.8424 96.2 87.2664 96.424 86.8024 96.872C86.3544 97.32 86.0904 98.016 86.0104 98.96H91.0264C91.0104 98.16 90.8024 97.504 90.4024 96.992C90.0024 96.464 89.3784 96.2 88.5304 96.2ZM104.582 93.656C106.054 93.656 107.246 94.232 108.158 95.384C109.07 96.52 109.526 98.2 109.526 100.424C109.526 102.648 109.054 104.344 108.11 105.512C107.166 106.664 105.958 107.24 104.486 107.24C103.542 107.24 102.79 107.072 102.23 106.736C101.67 106.384 101.214 105.992 100.862 105.56H100.67C100.798 106.232 100.862 106.872 100.862 107.48V112.76H97.2861V93.896H100.19L100.694 95.6H100.862C101.214 95.072 101.686 94.616 102.278 94.232C102.87 93.848 103.638 93.656 104.582 93.656ZM103.43 96.512C102.502 96.512 101.846 96.8 101.462 97.376C101.094 97.952 100.894 98.832 100.862 100.016V100.4C100.862 101.664 101.046 102.64 101.414 103.328C101.798 104 102.486 104.336 103.478 104.336C104.294 104.336 104.894 104 105.278 103.328C105.678 102.64 105.878 101.656 105.878 100.376C105.878 97.8 105.062 96.512 103.43 96.512ZM124.09 97.328C124.09 98.032 123.866 98.632 123.418 99.128C122.986 99.624 122.338 99.944 121.474 100.088V100.184C122.386 100.296 123.114 100.608 123.658 101.12C124.218 101.632 124.498 102.288 124.498 103.088C124.498 103.84 124.298 104.512 123.898 105.104C123.514 105.696 122.898 106.16 122.05 106.496C121.202 106.832 120.09 107 118.714 107H112.474V93.896H118.714C119.738 93.896 120.65 94.008 121.45 94.232C122.266 94.44 122.906 94.792 123.37 95.288C123.85 95.784 124.09 96.464 124.09 97.328ZM120.466 97.616C120.466 96.816 119.834 96.416 118.57 96.416H116.05V99.008H118.162C118.914 99.008 119.482 98.904 119.866 98.696C120.266 98.472 120.466 98.112 120.466 97.616ZM120.802 102.896C120.802 102.384 120.602 102.016 120.202 101.792C119.802 101.552 119.202 101.432 118.402 101.432H116.05V104.528H118.474C119.146 104.528 119.698 104.408 120.13 104.168C120.578 103.912 120.802 103.488 120.802 102.896ZM131.023 99.08C131.023 99.352 131.007 99.688 130.975 100.088C130.959 100.488 130.935 100.896 130.903 101.312C130.887 101.728 130.863 102.096 130.831 102.416C130.799 102.736 130.775 102.96 130.759 103.088L136.807 93.896H141.103V107H137.647V101.768C137.647 101.336 137.663 100.864 137.695 100.352C137.727 99.824 137.759 99.336 137.791 98.888C137.839 98.424 137.871 98.072 137.887 97.832L131.863 107H127.567V93.896H131.023V99.08ZM150.169 107.24C148.217 107.24 146.705 106.704 145.633 105.632C144.577 104.544 144.049 102.84 144.049 100.52C144.049 98.92 144.321 97.616 144.865 96.608C145.409 95.6 146.161 94.856 147.121 94.376C148.097 93.896 149.217 93.656 150.481 93.656C151.377 93.656 152.153 93.744 152.809 93.92C153.481 94.096 154.065 94.304 154.561 94.544L153.505 97.304C152.945 97.08 152.417 96.896 151.921 96.752C151.441 96.608 150.961 96.536 150.481 96.536C148.625 96.536 147.697 97.856 147.697 100.496C147.697 101.808 147.937 102.776 148.417 103.4C148.913 104.024 149.601 104.336 150.481 104.336C151.233 104.336 151.897 104.24 152.473 104.048C153.049 103.84 153.609 103.56 154.153 103.208V106.256C153.609 106.608 153.033 106.856 152.425 107C151.833 107.16 151.081 107.24 150.169 107.24ZM157.169 107V93.896H160.745V98.96H162.473C164.473 98.96 165.953 99.28 166.913 99.92C167.873 100.56 168.353 101.528 168.353 102.824C168.353 104.088 167.905 105.104 167.009 105.872C166.113 106.624 164.641 107 162.593 107H157.169ZM170.249 107V93.896H173.825V107H170.249ZM162.401 104.528C163.105 104.528 163.673 104.4 164.105 104.144C164.553 103.888 164.777 103.464 164.777 102.872C164.777 101.912 163.969 101.432 162.353 101.432H160.745V104.528H162.401ZM32.064 138.072V141H22.776V124.68H26.088V138.072H32.064ZM37.4083 127.56V131.376H43.2163V134.208H37.4083V138.12H44.6563V141H34.0963V124.68H44.6563V127.56H37.4083ZM55.6894 138.048H49.9774L49.3294 141H46.0174L49.6894 124.68H55.9774L59.6494 141H56.3374L55.6894 138.048ZM53.4094 127.416H52.2574L50.6014 135.168H55.0654L53.4094 127.416ZM67.3189 124.68C69.1749 124.68 70.5989 124.944 71.5909 125.472C72.5829 125.984 73.2709 126.8 73.6549 127.92C74.0549 129.04 74.2549 130.592 74.2549 132.576C74.2549 134.64 74.0629 136.272 73.6789 137.472C73.2949 138.672 72.5989 139.56 71.5909 140.136C70.5989 140.712 69.1749 141 67.3189 141H61.8229V124.68H67.3189ZM67.3189 138.12C68.3589 138.12 69.1269 137.912 69.6229 137.496C70.1349 137.08 70.4629 136.488 70.6069 135.72C70.7669 134.936 70.8469 133.824 70.8469 132.384C70.8469 131.104 70.7669 130.136 70.6069 129.48C70.4469 128.824 70.1189 128.344 69.6229 128.04C69.1269 127.72 68.3589 127.56 67.3189 127.56H65.1349V138.12H67.3189ZM83.1756 141.288C81.5276 141.288 80.2076 140.992 79.2156 140.4C78.2236 139.808 77.5036 138.904 77.0556 137.688C76.6236 136.456 76.4076 134.864 76.4076 132.912C76.4076 130.944 76.6236 129.344 77.0556 128.112C77.5036 126.864 78.2236 125.936 79.2156 125.328C80.2076 124.704 81.5276 124.392 83.1756 124.392C84.8236 124.392 86.1436 124.704 87.1356 125.328C88.1276 125.936 88.8396 126.864 89.2716 128.112C89.7196 129.344 89.9436 130.944 89.9436 132.912C89.9436 134.832 89.7276 136.4 89.2956 137.616C88.8796 138.832 88.1756 139.752 87.1836 140.376C86.1916 140.984 84.8556 141.288 83.1756 141.288ZM83.1756 138.408C84.0396 138.408 84.7116 138.232 85.1916 137.88C85.6876 137.512 86.0316 136.936 86.2236 136.152C86.4316 135.352 86.5356 134.272 86.5356 132.912C86.5356 131.552 86.4316 130.472 86.2236 129.672C86.0156 128.856 85.6636 128.256 85.1676 127.872C84.6876 127.472 84.0236 127.272 83.1756 127.272C82.3276 127.272 81.6556 127.472 81.1596 127.872C80.6796 128.256 80.3356 128.856 80.1276 129.672C79.9196 130.472 79.8156 131.552 79.8156 132.912C79.8156 134.176 79.9036 135.2 80.0796 135.984C80.2556 136.768 80.5836 137.368 81.0636 137.784C81.5596 138.2 82.2636 138.408 83.1756 138.408ZM91.9918 138.144L98.8078 127.992V127.56H91.9918V124.68H102.792V127.56L95.9758 137.688V138.12H102.792V141H91.9918V138.144ZM104.165 124.68H107.645L110.477 138.12H111.557L114.389 124.68H117.869L114.077 141H107.957L104.165 124.68ZM125.832 141.288C124.184 141.288 122.864 140.992 121.872 140.4C120.88 139.808 120.16 138.904 119.712 137.688C119.28 136.456 119.064 134.864 119.064 132.912C119.064 130.944 119.28 129.344 119.712 128.112C120.16 126.864 120.88 125.936 121.872 125.328C122.864 124.704 124.184 124.392 125.832 124.392C127.48 124.392 128.8 124.704 129.792 125.328C130.784 125.936 131.496 126.864 131.928 128.112C132.376 129.344 132.6 130.944 132.6 132.912C132.6 134.832 132.384 136.4 131.952 137.616C131.536 138.832 130.832 139.752 129.84 140.376C128.848 140.984 127.512 141.288 125.832 141.288ZM125.832 138.408C126.696 138.408 127.368 138.232 127.848 137.88C128.344 137.512 128.688 136.936 128.88 136.152C129.088 135.352 129.192 134.272 129.192 132.912C129.192 131.552 129.088 130.472 128.88 129.672C128.672 128.856 128.32 128.256 127.824 127.872C127.344 127.472 126.68 127.272 125.832 127.272C124.984 127.272 124.312 127.472 123.816 127.872C123.336 128.256 122.992 128.856 122.784 129.672C122.576 130.472 122.472 131.552 122.472 132.912C122.472 134.176 122.56 135.2 122.736 135.984C122.912 136.768 123.24 137.368 123.72 137.784C124.216 138.2 124.92 138.408 125.832 138.408ZM148.52 124.68V141H143.072L138.992 127.56H138.752V141H135.44V124.68H141.032L144.968 138.12H145.208V124.68H148.52ZM151.649 137.016H155.105V141H151.649V137.016ZM158.221 124.68H164.557C168.397 124.68 170.317 126.472 170.317 130.056C170.317 132.184 169.517 133.752 167.917 134.76L170.245 141H166.621L164.725 135.528H161.533V141H158.221V124.68ZM164.605 132.696C165.357 132.696 165.933 132.464 166.333 132C166.733 131.52 166.933 130.88 166.933 130.08C166.933 129.28 166.725 128.656 166.309 128.208C165.893 127.744 165.309 127.512 164.557 127.512H161.533V132.696H164.605ZM179.176 141.288C177.08 141.288 175.52 140.816 174.496 139.872C173.472 138.928 172.96 137.464 172.96 135.48V124.68H176.272V135.552C176.272 137.456 177.24 138.408 179.176 138.408C181.112 138.408 182.08 137.456 182.08 135.552V124.68H185.392V135.48C185.392 137.464 184.88 138.928 183.856 139.872C182.832 140.816 181.272 141.288 179.176 141.288Z" fill="white"/>
<defs>
<filter id="filter0_d" x="18" y="0" width="209" height="259" filterUnits="userSpaceOnUse" color-interpolation-filters="sRGB">
<feFlood flood-opacity="0" result="BackgroundImageFix"/>
<feColorMatrix in="SourceAlpha" type="matrix" values="0 0 0 0 0 0 0 0 0 0 0 0 0 0 0 0 0 0 127 0"/>
<feOffset dy="14"/>
<feGaussianBlur stdDeviation="14"/>
<feColorMatrix type="matrix" values="0 0 0 0 0.366667 0 0 0 0 0.810339 0 0 0 0 1 0 0 0 0.31 0"/>
<feBlend mode="normal" in2="BackgroundImageFix" result="effect1_dropShadow"/>
<feBlend mode="normal" in="SourceGraphic" in2="effect1_dropShadow" result="shape"/>
</filter>
<linearGradient id="paint0_linear" x1="122.5" y1="14" x2="274.696" y2="146.606" gradientUnits="userSpaceOnUse">
<stop stop-color="#1CBBFF"/>
<stop offset="1" stop-color="#4FF3FE"/>
</linearGradient>
<linearGradient id="paint1_linear" x1="122.5" y1="14" x2="268" y2="217" gradientUnits="userSpaceOnUse">
<stop stop-color="#1CBBFF"/>
<stop offset="1" stop-color="#4FF3FE"/>
</linearGradient>
<linearGradient id="paint2_linear" x1="122.5" y1="14" x2="268" y2="217" gradientUnits="userSpaceOnUse">
<stop stop-color="#5ECFFF"/>
<stop offset="1" stop-color="#64F6FF"/>
</linearGradient>
<linearGradient id="paint3_linear" x1="122.5" y1="14" x2="268" y2="217" gradientUnits="userSpaceOnUse">
<stop stop-color="#5ECFFF"/>
<stop offset="1" stop-color="#64F6FF"/>
</linearGradient>
<linearGradient id="paint4_linear" x1="232" y1="92" x2="232" y2="262" gradientUnits="userSpaceOnUse">
<stop stop-color="#A0F9FF"/>
<stop offset="1" stop-color="#A0F9FF" stop-opacity="0"/>
</linearGradient>
</defs>
</svg>
