<svg width="28" height="28" viewBox="0 0 28 28" fill="none" xmlns="http://www.w3.org/2000/svg">
<path d="M25.4706 19.1868L23.3333 15.9808V11.6673C23.3333 9.19196 22.3499 6.81799 20.5996 5.06765C18.8493 3.31732 16.4753 2.33398 13.9999 2.33398C11.5246 2.33398 9.1506 3.31732 7.40026 5.06765C5.64992 6.81799 4.66659 9.19196 4.66659 11.6673V15.9808L2.52926 19.1868C2.4125 19.3626 2.34556 19.5667 2.33554 19.7775C2.32553 19.9883 2.37282 20.1979 2.47239 20.3839C2.57195 20.57 2.72007 20.7256 2.901 20.8342C3.08193 20.9427 3.28891 21.0003 3.49993 21.0007H24.4999C24.7109 21.0003 24.9179 20.9427 25.0989 20.8342C25.2798 20.7256 25.4279 20.57 25.5275 20.3839C25.627 20.1979 25.6743 19.9883 25.6643 19.7775C25.6543 19.5667 25.5874 19.3626 25.4706 19.1868Z" fill="#A5A5A5"/>
<path d="M14.0001 25.666C15.0345 25.6669 16.0398 25.3234 16.8573 24.6897C17.6749 24.0559 18.2581 23.168 18.5151 22.166H9.48511C9.74208 23.168 10.3253 24.0559 11.1429 24.6897C11.9604 25.3234 12.9657 25.6669 14.0001 25.666Z" fill="#A5A5A5"/>
</svg>
