<svg width="26" height="26" viewBox="0 0 26 26" fill="none" xmlns="http://www.w3.org/2000/svg">
<path d="M7.8 0H3.9C1.74609 0 0 1.74609 0 3.9V7.8C0 9.95391 1.74609 11.7 3.9 11.7H7.8C9.95391 11.7 11.7 9.95391 11.7 7.8V3.9C11.7 1.74609 9.95391 0 7.8 0Z" fill="#333333"/>
<path d="M22.1003 0H18.2003C16.0464 0 14.3003 1.74609 14.3003 3.9V7.8C14.3003 9.95391 16.0464 11.7 18.2003 11.7H22.1003C24.2542 11.7 26.0003 9.95391 26.0003 7.8V3.9C26.0003 1.74609 24.2542 0 22.1003 0Z" fill="#333333"/>
<path d="M7.8 14.3008H3.9C1.74609 14.3008 0 16.0469 0 18.2008V22.1008C0 24.2547 1.74609 26.0008 3.9 26.0008H7.8C9.95391 26.0008 11.7 24.2547 11.7 22.1008V18.2008C11.7 16.0469 9.95391 14.3008 7.8 14.3008Z" fill="#333333"/>
<path d="M22.1003 14.3008H18.2003C16.0464 14.3008 14.3003 16.0469 14.3003 18.2008V22.1008C14.3003 24.2547 16.0464 26.0008 18.2003 26.0008H22.1003C24.2542 26.0008 26.0003 24.2547 26.0003 22.1008V18.2008C26.0003 16.0469 24.2542 14.3008 22.1003 14.3008Z" fill="#333333"/>
</svg>
