<svg width="28" height="28" viewBox="0 0 28 28" fill="none" xmlns="http://www.w3.org/2000/svg">
<path d="M21.0001 10.9371C21.0002 9.94675 20.8548 8.96178 20.5687 8.01369C20.1625 6.66507 19.4776 5.41676 18.5585 4.34952C17.6393 3.28228 16.5064 2.41988 15.2329 1.81812C13.9595 1.21636 12.5739 0.888653 11.1658 0.856189C9.75766 0.823725 8.35843 1.08723 7.05859 1.62966C5.75875 2.17209 4.58726 2.98136 3.61992 4.00511C2.65259 5.02886 1.91094 6.24429 1.44297 7.57275C0.975008 8.90122 0.791145 10.3131 0.90328 11.7171C1.01542 13.1211 1.42105 14.486 2.09394 15.7233L0.908319 19.8848C0.87122 20.015 0.864847 20.1521 0.8897 20.2852C0.914553 20.4183 0.969955 20.5438 1.05155 20.6518C1.13314 20.7599 1.23869 20.8475 1.3599 20.9079C1.48111 20.9682 1.61467 20.9996 1.75007 20.9996C1.83112 20.9994 1.91178 20.9882 1.98982 20.9663L6.1522 19.7798C6.74276 20.1034 7.36568 20.3642 8.01069 20.5577C8.95862 20.851 9.9453 21 10.9376 20.9996C13.6054 20.9966 16.1631 19.9354 18.0495 18.049C19.9359 16.1626 20.9971 13.6049 21.0001 10.9371Z" fill="#A5A5A5"/>
<path d="M27.0917 26.0107L25.9061 21.8492C27.117 19.6204 27.4401 17.0161 26.8104 14.559C26.1806 12.102 24.6448 9.97408 22.5111 8.60254C22.8616 10.3174 22.8259 12.0887 22.4065 13.788C21.987 15.4873 21.1944 17.0719 20.0861 18.4266C18.9779 19.7814 17.5818 20.8723 15.9994 21.6202C14.4169 22.3681 12.6878 22.7542 10.9375 22.7504C10.1576 22.748 9.37989 22.6674 8.61609 22.5098C9.53095 23.9191 10.7819 25.0787 12.2563 25.8845C13.7307 26.6902 15.3823 27.1166 17.0625 27.1254C18.7347 27.1256 20.3803 26.7066 21.8487 25.9065L26.0102 27.0922C26.0883 27.1141 26.1689 27.1252 26.25 27.1254C26.3854 27.1255 26.5189 27.0941 26.6401 27.0337C26.7613 26.9734 26.8669 26.8857 26.9485 26.7777C27.0301 26.6696 27.0855 26.5441 27.1103 26.411C27.1352 26.2779 27.1288 26.1409 27.0917 26.0107Z" fill="#A5A5A5"/>
</svg>
