<svg width="28" height="28" viewBox="0 0 28 28" fill="none" xmlns="http://www.w3.org/2000/svg">
<path d="M23.3334 9.33268V16.3327C23.3314 18.1886 22.5932 19.9679 21.2809 21.2802C19.9686 22.5925 18.1893 23.3306 16.3334 23.3327H9.33341C9.024 23.3327 8.72725 23.4556 8.50846 23.6744C8.28966 23.8932 8.16675 24.1899 8.16675 24.4993C8.16675 24.8088 8.28966 25.1055 8.50846 25.3243C8.72725 25.5431 9.024 25.666 9.33341 25.666H16.3334C18.8079 25.6632 21.1802 24.6789 22.9299 22.9292C24.6797 21.1795 25.6639 18.8072 25.6667 16.3327V9.33268C25.6667 9.02326 25.5438 8.72652 25.325 8.50772C25.1062 8.28893 24.8095 8.16602 24.5001 8.16602C24.1907 8.16602 23.8939 8.28893 23.6751 8.50772C23.4563 8.72652 23.3334 9.02326 23.3334 9.33268Z" fill="#A5A5A5"/>
<path d="M16.3333 22.1673C17.8798 22.1655 19.3625 21.5503 20.456 20.4568C21.5496 19.3632 22.1648 17.8805 22.1666 16.334V8.16732C22.1648 6.62078 21.5496 5.13811 20.456 4.04454C19.3625 2.95097 17.8798 2.33581 16.3333 2.33398H8.16659C6.62005 2.33581 5.13738 2.95097 4.04381 4.04454C2.95024 5.13811 2.33507 6.62078 2.33325 8.16732V16.334C2.33507 17.8805 2.95024 19.3632 4.04381 20.4568C5.13738 21.5503 6.62005 22.1655 8.16659 22.1673H16.3333ZM9.11159 10.9838L10.6029 13.046L15.5407 8.4773C15.768 8.26714 16.0694 8.15586 16.3787 8.16794C16.688 8.18002 16.9798 8.31446 17.1899 8.5417C17.4001 8.76894 17.5114 9.07035 17.4993 9.37964C17.4872 9.68892 17.3528 9.98074 17.1255 10.1909L11.2217 15.6527C11.1006 15.7647 10.957 15.8497 10.8005 15.9022C10.6441 15.9546 10.4782 15.9733 10.314 15.9569C10.1498 15.9406 9.99094 15.8896 9.8479 15.8073C9.70486 15.725 9.5809 15.6133 9.48422 15.4795L7.22159 12.3509C7.04939 12.0999 6.98212 11.7915 7.03411 11.4916C7.0861 11.1917 7.25324 10.924 7.49987 10.7456C7.74649 10.5672 8.05307 10.4922 8.35419 10.5367C8.6553 10.5812 8.9271 10.7417 9.11159 10.9838Z" fill="#A5A5A5"/>
</svg>
