<svg width="24" height="24" viewBox="0 0 24 24" fill="none" xmlns="http://www.w3.org/2000/svg">
<path d="M7.33337 0.333008H3.83337C1.90038 0.333008 0.333374 1.90001 0.333374 3.83301V7.33301C0.333374 9.266 1.90038 10.833 3.83337 10.833H7.33337C9.26637 10.833 10.8334 9.266 10.8334 7.33301V3.83301C10.8334 1.90001 9.26637 0.333008 7.33337 0.333008Z" fill="#A5A5A5"/>
<path d="M20.1667 0.333008H16.6667C14.7338 0.333008 13.1667 1.90001 13.1667 3.83301V7.33301C13.1667 9.266 14.7338 10.833 16.6667 10.833H20.1667C22.0997 10.833 23.6667 9.266 23.6667 7.33301V3.83301C23.6667 1.90001 22.0997 0.333008 20.1667 0.333008Z" fill="#A5A5A5"/>
<path d="M7.33337 13.166H3.83337C1.90038 13.166 0.333374 14.733 0.333374 16.666V20.166C0.333374 22.099 1.90038 23.666 3.83337 23.666H7.33337C9.26637 23.666 10.8334 22.099 10.8334 20.166V16.666C10.8334 14.733 9.26637 13.166 7.33337 13.166Z" fill="#A5A5A5"/>
<path d="M20.1667 13.166H16.6667C14.7338 13.166 13.1667 14.733 13.1667 16.666V20.166C13.1667 22.099 14.7338 23.666 16.6667 23.666H20.1667C22.0997 23.666 23.6667 22.099 23.6667 20.166V16.666C23.6667 14.733 22.0997 13.166 20.1667 13.166Z" fill="#A5A5A5"/>
</svg>
