<svg width="20" height="20" viewBox="0 0 20 20" fill="none" xmlns="http://www.w3.org/2000/svg">
<path d="M13.1092 12.9671L12.2583 13.818C12.2034 13.8754 12.1373 13.921 12.0641 13.9519C11.991 13.9829 11.9123 13.9986 11.8328 13.998C11.6728 13.9966 11.5198 13.9319 11.4074 13.818L9.00193 11.3799C8.94629 11.3239 8.90223 11.2575 8.87228 11.1845C8.84233 11.1115 8.82708 11.0333 8.82739 10.9544V5.29805C8.82739 5.13892 8.8906 4.9863 9.00312 4.87378C9.11564 4.76126 9.26826 4.69805 9.42739 4.69805H10.6274C10.7861 4.69947 10.9379 4.76314 11.0501 4.87536C11.1623 4.98757 11.226 5.13936 11.2274 5.29805V9.96168C11.2271 10.0406 11.2423 10.1188 11.2723 10.1918C11.3022 10.2648 11.3463 10.3312 11.4019 10.3871L13.1365 12.1217C13.2445 12.2376 13.3023 12.3916 13.2972 12.55C13.2921 12.7084 13.2245 12.8584 13.1092 12.9671ZM10.0001 0.498047C8.12083 0.498047 6.28375 1.05532 4.72119 2.09939C3.15862 3.14347 1.94075 4.62745 1.22158 6.36368C0.502408 8.09991 0.31424 10.0104 0.68087 11.8536C1.0475 13.6967 1.95246 15.3898 3.28131 16.7187C4.61017 18.0475 6.30323 18.9525 8.1464 19.3191C9.98957 19.6857 11.9001 19.4976 13.6363 18.7784C15.3725 18.0592 16.8565 16.8414 17.9006 15.2788C18.9447 13.7162 19.5019 11.8791 19.5019 9.99986C19.5019 7.47983 18.5009 5.063 16.7189 3.28106C14.937 1.49913 12.5202 0.498047 10.0001 0.498047Z" fill="#A5A5A5"/>
</svg>
