<svg width="16" height="16" viewBox="0 0 16 16" fill="none" xmlns="http://www.w3.org/2000/svg">
<path d="M7.99935 0.666016C6.54896 0.666016 5.13113 1.09611 3.92517 1.90191C2.71921 2.7077 1.77928 3.85301 1.22424 5.193C0.669193 6.533 0.523969 8.00748 0.806927 9.43001C1.08989 10.8525 1.78832 12.1592 2.8139 13.1848C3.83949 14.2104 5.14616 14.9088 6.56869 15.1918C7.99122 15.4747 9.46571 15.3295 10.8057 14.7745C12.1457 14.2194 13.291 13.2795 14.0968 12.0735C14.9026 10.8676 15.3327 9.44975 15.3327 7.99935C15.3304 6.05513 14.557 4.1912 13.1823 2.81643C11.8075 1.44166 9.94357 0.668309 7.99935 0.666016ZM7.99935 13.9993C6.81266 13.9993 5.65263 13.6475 4.66593 12.9882C3.67924 12.3289 2.9102 11.3918 2.45607 10.2955C2.00195 9.19909 1.88313 7.99269 2.11464 6.82881C2.34615 5.66492 2.9176 4.59582 3.75671 3.75671C4.59583 2.91759 5.66492 2.34615 6.82881 2.11464C7.9927 1.88313 9.1991 2.00195 10.2955 2.45607C11.3918 2.9102 12.3289 3.67923 12.9882 4.66593C13.6475 5.65262 13.9994 6.81266 13.9994 7.99935C13.9974 9.59005 13.3646 11.115 12.2399 12.2398C11.1151 13.3646 9.59005 13.9974 7.99935 13.9993Z" fill="#A5A5A5"/>
<path d="M8.66732 7.72465V4.00065C8.66732 3.82384 8.59708 3.65427 8.47206 3.52925C8.34703 3.40422 8.17746 3.33398 8.00065 3.33398C7.82384 3.33398 7.65427 3.40422 7.52925 3.52925C7.40422 3.65427 7.33398 3.82384 7.33398 4.00065V8.00065C7.33402 8.17744 7.40428 8.34698 7.52932 8.47198L9.52932 10.472C9.65505 10.5934 9.82345 10.6606 9.99825 10.6591C10.173 10.6576 10.3403 10.5875 10.4639 10.4639C10.5875 10.3402 10.6576 10.173 10.6591 9.99824C10.6606 9.82345 10.5934 9.65505 10.472 9.52931L8.66732 7.72465Z" fill="#A5A5A5"/>
</svg>
