<svg width="28" height="28" viewBox="0 0 28 28" fill="none" xmlns="http://www.w3.org/2000/svg">
<path d="M13.9999 13.8376L25.3828 7.62872C25.0208 6.4376 24.2865 5.39389 23.2877 4.65081C22.2888 3.90772 21.0781 3.50438 19.8332 3.5H8.16654C6.92163 3.50438 5.71091 3.90772 4.71209 4.65081C3.71327 5.39389 2.97896 6.4376 2.61694 7.62872L13.9999 13.8376Z" fill="#6CC7EE"/>
<path d="M14.5588 16.1907C14.3873 16.2841 14.1952 16.3331 13.9999 16.3331C13.8047 16.3331 13.6125 16.2841 13.4411 16.1907L2.33325 10.1318V18.6665C2.33507 20.213 2.95024 21.6957 4.04381 22.7892C5.13738 23.8828 6.62005 24.498 8.16659 24.4998H19.8333C21.3798 24.498 22.8625 23.8828 23.956 22.7892C25.0496 21.6957 25.6648 20.213 25.6666 18.6665V10.1318L14.5588 16.1907Z" fill="#6CC7EE"/>
</svg>
