<svg width="37" height="37" viewBox="0 0 37 37" fill="none" xmlns="http://www.w3.org/2000/svg">
<path d="M35.3093 27.4022L26.4082 18.4992L35.3066 9.59889C36.3943 8.51093 36.3943 6.73203 35.3066 5.64365L31.3469 1.68893C30.2592 0.60369 28.4807 0.60369 27.393 1.68893L18.4942 10.5892L9.59627 1.68893C8.51127 0.60369 6.73006 0.60369 5.64191 1.68893L1.69078 5.64365C0.603073 6.7316 0.603073 8.5105 1.69078 9.59889L10.5892 18.4992L1.69078 27.4022C0.603073 28.4902 0.603073 30.2691 1.69078 31.3569L5.64514 35.309C6.73285 36.397 8.51398 36.397 9.59898 35.309L18.4974 26.4118L27.3952 35.309C28.4829 36.397 30.2614 36.397 31.3549 35.309L35.3093 31.3569C36.3969 30.269 36.3969 28.4901 35.3093 27.4022Z" fill="#A5A5A5"/>
</svg>
