<svg width="50" height="50" viewBox="0 0 50 50" fill="none" xmlns="http://www.w3.org/2000/svg">
<rect x="0.5" y="0.5" width="49" height="49" rx="13.5" stroke="#F5F5F5"/>
<path d="M35.4213 22.39C35.245 21.862 34.7995 21.4833 34.2595 21.4008L28.7778 20.5795L26.3103 15.3415C26.065 14.8225 25.5633 14.5 25 14.5C24.4368 14.5 23.935 14.8225 23.6898 15.3415L21.2583 20.5608L15.7405 21.4008C15.2005 21.4833 14.7558 21.862 14.5788 22.39C14.398 22.9323 14.5315 23.5203 14.9275 23.9245L18.9183 28.009L17.9755 33.766C17.8818 34.3412 18.1143 34.9045 18.5838 35.2352C19.0353 35.5555 19.6158 35.587 20.0988 35.3207L24.9655 32.6027L29.9013 35.3207C30.3858 35.587 30.9648 35.554 31.4163 35.2352C31.8858 34.9045 32.119 34.3412 32.0245 33.766L31.0803 28.0015L35.0725 23.9245C35.4685 23.5203 35.602 22.9323 35.4213 22.39Z" fill="#C2C2C2"/>
</svg>
