<svg width="26" height="26" viewBox="0 0 26 26" fill="none" xmlns="http://www.w3.org/2000/svg">
<path d="M25.1581 9.955C24.9525 9.339 24.4327 8.89713 23.8027 8.80087L17.4073 7.84275L14.5286 1.73175C14.2425 1.12625 13.6571 0.75 13 0.75C12.3428 0.75 11.7575 1.12625 11.4713 1.73175L8.6346 7.82088L2.19722 8.80087C1.56722 8.89713 1.04835 9.339 0.841847 9.955C0.630972 10.5876 0.786722 11.2736 1.24872 11.7452L5.9046 16.5105L4.80472 23.227C4.69535 23.8981 4.9666 24.5553 5.51435 24.9411C6.0411 25.3147 6.71835 25.3515 7.28185 25.0409L12.9597 21.8699L18.7181 25.0409C19.2833 25.3515 19.9588 25.313 20.4856 24.9411C21.0333 24.5553 21.3055 23.8981 21.1952 23.227L20.0936 16.5018L24.7512 11.7452C25.2132 11.2736 25.369 10.5876 25.1581 9.955Z" fill="#A5A5A5"/>
</svg>
