<svg width="22" height="29" viewBox="0 0 22 29" fill="none" xmlns="http://www.w3.org/2000/svg">
<path d="M21.4051 9.78341C21.4078 10.9382 21.2152 12.0821 20.8387 13.1489C20.4621 14.2157 19.909 15.1843 19.2114 15.9985L9.75541 27.0967C8.74857 28.2769 7.38367 28.9395 5.96073 28.939C4.53778 28.9384 3.17325 28.2747 2.16708 27.0938C1.16091 25.9129 0.59544 24.3114 0.594971 22.6413C0.594502 20.9712 1.15907 19.3693 2.16458 18.1876L11.7383 6.95136C12.0394 6.59535 12.3973 6.3126 12.7916 6.11934C13.186 5.92608 13.609 5.8261 14.0363 5.82515C14.4636 5.82419 14.8869 5.92228 15.2819 6.11378C15.6769 6.30528 16.0357 6.58643 16.3379 6.94109C16.6401 7.29575 16.8796 7.71695 17.0428 8.18052C17.2059 8.64409 17.2895 9.1409 17.2887 9.64246C17.2878 10.144 17.2026 10.6405 17.038 11.1033C16.8733 11.5661 16.6324 11.9862 16.329 12.3395L9.07534 20.8528C9.00502 20.9354 8.90965 20.9817 8.8102 20.9817C8.71075 20.9817 8.61538 20.9354 8.54506 20.8528L7.48452 19.6081C7.4142 19.5256 7.3747 19.4136 7.3747 19.2969C7.3747 19.1802 7.4142 19.0683 7.48452 18.9857L14.7383 10.4724C14.8308 10.3638 14.9042 10.2349 14.9543 10.093C15.0043 9.95109 15.0301 9.79902 15.0301 9.64543C15.0301 9.49185 15.0043 9.33978 14.9543 9.19789C14.9042 9.05599 14.8308 8.92707 14.7383 8.81848C14.5481 8.60654 14.2959 8.48837 14.0337 8.48837C13.7714 8.48837 13.5192 8.60654 13.329 8.81848L3.75529 20.0547C3.1706 20.7409 2.84213 21.6717 2.84214 22.6422C2.84215 23.6127 3.17064 24.5435 3.75535 25.2297C4.34006 25.9159 5.13309 26.3015 5.95998 26.3014C6.78687 26.3014 7.57989 25.9159 8.16458 25.2296L17.6207 14.1316C18.6032 12.9784 19.1552 11.4143 19.1552 9.78349C19.1552 8.15264 18.6032 6.58858 17.6207 5.4354C16.6381 4.28222 15.3055 3.63437 13.916 3.63437C12.5265 3.63437 11.1939 4.28223 10.2113 5.43542L6.07534 10.2897C6.00502 10.3723 5.90964 10.4186 5.8102 10.4186C5.71075 10.4186 5.61538 10.3723 5.54505 10.2897L4.48452 9.04501C4.4142 8.96247 4.3747 8.85053 4.3747 8.73382C4.3747 8.6171 4.4142 8.50516 4.48452 8.42262L8.62051 3.56848C9.66786 2.33928 11.0023 1.50218 12.455 1.16304C13.9076 0.823894 15.4134 0.997939 16.7818 1.66316C18.1502 2.32839 19.3199 3.45492 20.1428 4.9003C20.9657 6.34569 21.405 8.04502 21.4051 9.78341Z" fill="#202020"/>
</svg>
