<svg width="28" height="28" viewBox="0 0 28 28" fill="none" xmlns="http://www.w3.org/2000/svg">
<path d="M2.33325 23.3327C2.33602 24.2601 2.70566 25.1487 3.36144 25.8045C4.01722 26.4603 4.90585 26.8299 5.83325 26.8327H12.8333V15.166H2.33325V23.3327Z" fill="#A5A5A5"/>
<path d="M15.1667 26.8327H22.1667C23.0942 26.8299 23.9828 26.4603 24.6386 25.8045C25.2943 25.1487 25.664 24.2601 25.6667 23.3327V15.166H15.1667V26.8327Z" fill="#A5A5A5"/>
<path d="M23.3334 5.83268H19.6234C19.7647 5.46005 19.8359 5.06452 19.8334 4.66602C19.8306 3.73861 19.461 2.84998 18.8052 2.1942C18.1494 1.53842 17.2608 1.16879 16.3334 1.16602C15.4695 1.16827 14.6374 1.49276 14.0001 2.07602C13.3627 1.49276 12.5307 1.16827 11.6667 1.16602C10.7393 1.16879 9.85071 1.53842 9.19493 2.1942C8.53915 2.84998 8.16951 3.73861 8.16674 4.66602C8.16426 5.06452 8.23546 5.46005 8.37674 5.83268H4.66675C3.73934 5.83545 2.85071 6.20509 2.19493 6.86087C1.53916 7.51665 1.16952 8.40528 1.16675 9.33268V11.666C1.16675 11.9754 1.28966 12.2722 1.50846 12.491C1.72725 12.7098 2.02399 12.8327 2.33341 12.8327H12.8334V5.83268H11.6667C11.436 5.83268 11.2104 5.76426 11.0186 5.63606C10.8267 5.50787 10.6772 5.32566 10.5889 5.11248C10.5006 4.8993 10.4775 4.66472 10.5225 4.43841C10.5675 4.2121 10.6786 4.00422 10.8418 3.84106C11.0049 3.6779 11.2128 3.56678 11.4391 3.52177C11.6654 3.47675 11.9 3.49985 12.1132 3.58816C12.3264 3.67646 12.5086 3.82599 12.6368 4.01785C12.765 4.20971 12.8334 4.43527 12.8334 4.66602V5.83268H15.1667V4.66602C15.1667 4.43527 15.2352 4.20971 15.3634 4.01785C15.4916 3.82599 15.6738 3.67646 15.8869 3.58816C16.1001 3.49985 16.3347 3.47675 16.561 3.52177C16.7873 3.56678 16.9952 3.6779 17.1584 3.84106C17.3215 4.00422 17.4326 4.2121 17.4777 4.43841C17.5227 4.66472 17.4996 4.8993 17.4113 5.11248C17.323 5.32566 17.1734 5.50787 16.9816 5.63606C16.7897 5.76426 16.5642 5.83268 16.3334 5.83268H15.1667V12.8327H25.6667C25.9762 12.8327 26.2729 12.7098 26.4917 12.491C26.7105 12.2722 26.8334 11.9754 26.8334 11.666V9.33268C26.8306 8.40528 26.461 7.51665 25.8052 6.86087C25.1494 6.20509 24.2608 5.83545 23.3334 5.83268Z" fill="#A5A5A5"/>
</svg>
