<svg width="25" height="17" viewBox="0 0 25 17" fill="none" xmlns="http://www.w3.org/2000/svg">
<path d="M24.0054 0.567701L23.8859 0.477873C23.4647 0.16226 22.8941 -0.00908395 22.3016 0.000371535C21.709 0.00868202 21.1477 0.200082 20.7453 0.528734L8.59371 10.496L8.3548 10.5727L8.12217 10.4924L5.10731 7.84484C4.67049 7.46304 4.04477 7.23496 3.37533 7.2149C2.70559 7.19485 2.05501 7.38736 1.58195 7.74194C0.827483 8.31041 0.72841 9.20506 1.34932 9.85882L7.5689 16.4079C7.92251 16.7802 8.49312 17 9.10146 17H9.64368C10.667 17 11.6242 16.6243 12.2041 15.9918L24.2818 2.87484C24.9422 2.15737 24.8227 1.1857 24.0054 0.567701Z" fill="white"/>
</svg>
