<svg width="14" height="12" viewBox="0 0 14 12" fill="none" xmlns="http://www.w3.org/2000/svg">
<path d="M13.5497 8.64C13.5114 8.614 10.7333 6.8976 9.9708 7.0208C9.6068 7.076 9.39867 7.2888 8.981 7.7148C8.9138 7.7836 8.75233 7.9484 8.6268 8.0656C8.36285 7.99181 8.10538 7.90198 7.85633 7.7968C6.57091 7.2604 5.53233 6.37019 4.90653 5.2684C4.78374 5.05497 4.67894 4.83427 4.59293 4.608C4.73013 4.5 4.9224 4.3616 5.00453 4.3024C5.4992 3.9464 5.74793 3.768 5.81233 3.4552C5.9444 2.8072 3.94333 0.4096 3.92233 0.388C3.83154 0.276828 3.71306 0.184345 3.57545 0.117241C3.43784 0.0501375 3.28455 0.0100913 3.12667 0C2.3156 0 0 2.5748 0 3.0084C0 3.0336 0.0424667 5.5952 3.72773 8.8084C7.47273 11.9636 10.4608 12 10.4902 12C10.9965 12 14 10.0152 14 9.32C13.9884 9.18515 13.9419 9.05419 13.864 8.9366C13.7862 8.819 13.6788 8.7177 13.5497 8.64Z" fill="#1CBBFF"/>
</svg>
