<svg width="13" height="11" viewBox="0 0 13 11" fill="none" xmlns="http://www.w3.org/2000/svg">
<path d="M10.0455 0H2.95455C2.17124 0.000793923 1.42028 0.264439 0.866403 0.733105C0.312521 1.20177 0.000938279 1.83719 0 2.49998V6.49996C0.000859492 7.07605 0.236417 7.63429 0.66697 8.08057C1.09752 8.52685 1.69674 8.83389 2.36364 8.94994V10.4999C2.36362 10.5904 2.39265 10.6793 2.44762 10.7569C2.50259 10.8346 2.58145 10.8982 2.67578 10.9409C2.7701 10.9836 2.87636 11.0038 2.98321 10.9994C3.09007 10.995 3.19351 10.9662 3.2825 10.9159L6.67727 8.99994H10.0455C10.8288 8.99914 11.5797 8.7355 12.1336 8.26683C12.6875 7.79817 12.9991 7.16275 13 6.49996V2.49998C12.9991 1.83719 12.6875 1.20177 12.1336 0.733105C11.5797 0.264439 10.8288 0.000793923 10.0455 0ZM8.86364 5.99996H4.13636C3.97964 5.99996 3.82934 5.94728 3.71853 5.85351C3.60771 5.75975 3.54545 5.63257 3.54545 5.49996C3.54545 5.36735 3.60771 5.24018 3.71853 5.14641C3.82934 5.05264 3.97964 4.99997 4.13636 4.99997H8.86364C9.02036 4.99997 9.17066 5.05264 9.28147 5.14641C9.39229 5.24018 9.45455 5.36735 9.45455 5.49996C9.45455 5.63257 9.39229 5.75975 9.28147 5.85351C9.17066 5.94728 9.02036 5.99996 8.86364 5.99996ZM10.0455 3.99997H2.95455C2.79783 3.99997 2.64753 3.94729 2.53671 3.85353C2.42589 3.75976 2.36364 3.63258 2.36364 3.49998C2.36364 3.36737 2.42589 3.24019 2.53671 3.14643C2.64753 3.05266 2.79783 2.99998 2.95455 2.99998H10.0455C10.2022 2.99998 10.3525 3.05266 10.4633 3.14643C10.5741 3.24019 10.6364 3.36737 10.6364 3.49998C10.6364 3.63258 10.5741 3.75976 10.4633 3.85353C10.3525 3.94729 10.2022 3.99997 10.0455 3.99997Z" fill="#3CD667"/>
</svg>
