<svg width="27" height="23" viewBox="0 0 27 23" fill="none" xmlns="http://www.w3.org/2000/svg">
<rect x="0.601562" width="25.6023" height="23" rx="11.5" fill="#F6EEFF"/>
<path d="M13.4034 11.4265L19.1857 8.59312C19.0018 8.04955 18.6288 7.57326 18.1215 7.23415C17.6141 6.89505 16.999 6.71098 16.3666 6.70898H10.4402C9.8078 6.71098 9.19277 6.89505 8.68539 7.23415C8.17801 7.57326 7.80499 8.04955 7.62109 8.59312L13.4034 11.4265Z" fill="#1CBBFF"/>
<path d="M13.6869 12.5013C13.5998 12.5439 13.5022 12.5663 13.403 12.5663C13.3038 12.5663 13.2062 12.5439 13.1191 12.5013L7.47656 9.73633V13.6311C7.47749 14.3369 7.78998 15.0135 8.34549 15.5125C8.90101 16.0116 9.65418 16.2923 10.4398 16.2931H16.3663C17.1519 16.2923 17.905 16.0116 18.4606 15.5125C19.0161 15.0135 19.3286 14.3369 19.3295 13.6311V9.73633L13.6869 12.5013Z" fill="#1CBBFF"/>
</svg>
