<svg width="28" height="24" viewBox="0 0 28 24" fill="none" xmlns="http://www.w3.org/2000/svg">
<g clip-path="url(#clip0)">
<path d="M19.3103 6.34528C18.792 5.8745 17.9476 5.86857 17.4213 6.33205L7.54766 15.0986L3.25552 11.1068C2.74359 10.6275 1.89609 10.6118 1.3626 11.0717C0.829043 11.5315 0.811531 12.2929 1.32345 12.7722C1.32577 12.7743 1.32803 12.7764 1.33035 12.7786L6.56371 17.6508C6.81416 17.8803 7.15647 18.0103 7.51426 18.0116H7.52898C7.87999 18.0106 8.21655 17.8858 8.46614 17.664L19.2982 8.04231C19.8216 7.57606 19.8269 6.81752 19.3103 6.34528Z" fill="#34A8D9"/>
<path d="M14.5967 17.6508C14.8465 17.8798 15.1877 18.0097 15.5446 18.0116H15.5593C15.9103 18.0107 16.2469 17.8858 16.4964 17.6641L27.3286 8.04239C27.8195 7.54572 27.7694 6.78556 27.2166 6.34448C26.7154 5.9446 25.9623 5.93934 25.4543 6.33213L15.5847 15.0987L15.2326 14.7703C14.7207 14.291 13.8732 14.2752 13.3397 14.7351C12.8061 15.195 12.7886 15.9563 13.3005 16.4356C13.3028 16.4378 13.3051 16.44 13.3074 16.4421L14.5967 17.6508Z" fill="#34A8D9"/>
</g>
<defs>
<clipPath id="clip0">
<rect width="26.7154" height="24" fill="white" transform="translate(0.950684)"/>
</clipPath>
</defs>
</svg>
