<svg width="20" height="20" viewBox="0 0 20 20" fill="none" xmlns="http://www.w3.org/2000/svg">
<path d="M19 10H18V1C18 0.734784 17.8946 0.48043 17.7071 0.292893C17.5196 0.105357 17.2652 0 17 0H3C2.73478 0 2.48043 0.105357 2.29289 0.292893C2.10536 0.48043 2 0.734784 2 1V10H1C0.734784 10 0.48043 10.1054 0.292893 10.2929C0.105357 10.4804 0 10.7348 0 11V15C0.00156145 16.3256 0.528847 17.5965 1.46619 18.5338C2.40353 19.4712 3.6744 19.9984 5 20H15C16.3256 19.9984 17.5965 19.4712 18.5338 18.5338C19.4712 17.5965 19.9984 16.3256 20 15V11C20 10.7348 19.8946 10.4804 19.7071 10.2929C19.5196 10.1054 19.2652 10 19 10ZM4 2H16V10H14C13.7901 9.99999 13.5856 10.066 13.4153 10.1887C13.2451 10.3114 13.1177 10.4845 13.0513 10.6836L12.2793 13H7.7207L6.9487 10.6836C6.8823 10.4845 6.75495 10.3114 6.58468 10.1887C6.41441 10.066 6.20987 9.99999 6 10H4V2Z" fill="#6418C3"/>
</svg>
