<svg width="28" height="28" viewBox="0 0 28 28" fill="none" xmlns="http://www.w3.org/2000/svg">
<path d="M14 13.8376L25.3829 7.62872C25.0209 6.4376 24.2866 5.39389 23.2878 4.65081C22.289 3.90772 21.0782 3.50438 19.8333 3.5H8.16667C6.92175 3.50438 5.71103 3.90772 4.71221 4.65081C3.71339 5.39389 2.97908 6.4376 2.61707 7.62872L14 13.8376Z" fill="#A5A5A5"/>
<path d="M14.5589 16.1907C14.3874 16.2841 14.1953 16.3331 14 16.3331C13.8048 16.3331 13.6126 16.2841 13.4412 16.1907L2.33337 10.1318V18.6665C2.3352 20.213 2.95036 21.6957 4.04393 22.7892C5.1375 23.8828 6.62017 24.498 8.16671 24.4998H19.8334C21.3799 24.498 22.8626 23.8828 23.9562 22.7892C25.0497 21.6957 25.6649 20.213 25.6667 18.6665V10.1318L14.5589 16.1907Z" fill="#A5A5A5"/>
</svg>
