<svg width="32" height="24" viewBox="0 0 32 24" fill="none" xmlns="http://www.w3.org/2000/svg">
<path d="M16.0448 1C13.2907 1 10.5984 1.64514 8.30841 2.85383C6.01842 4.06253 4.23359 5.78049 3.17963 7.79048C2.12566 9.80047 1.8499 12.0122 2.3872 14.146C2.92451 16.2798 4.25076 18.2398 6.19823 19.7782C8.14571 21.3166 10.6269 22.3642 13.3282 22.7886C16.0294 23.2131 18.8293 22.9952 21.3738 22.1627C23.9183 21.3301 26.0931 19.9202 27.6232 18.1113C29.1534 16.3023 29.9701 14.1756 29.9701 12C29.9657 9.08367 28.4972 6.28778 25.8866 4.22563C23.2761 2.16347 19.7367 1.00344 16.0448 1ZM20.7376 15.707C20.5002 15.8945 20.1783 15.9998 19.8426 15.9998C19.5069 15.9998 19.185 15.8945 18.9476 15.707L15.1498 12.707C14.9124 12.5195 14.779 12.2652 14.7789 12V6C14.7789 5.73478 14.9123 5.48043 15.1497 5.29289C15.3871 5.10536 15.7091 5 16.0448 5C16.3806 5 16.7026 5.10536 16.94 5.29289C17.1774 5.48043 17.3108 5.73478 17.3108 6V11.586L20.7376 14.293C20.975 14.4805 21.1083 14.7348 21.1083 15C21.1083 15.2652 20.975 15.5195 20.7376 15.707Z" fill="#FFAB2D"/>
</svg>
