<svg width="22" height="21" viewBox="0 0 22 21" fill="none" xmlns="http://www.w3.org/2000/svg">
<path d="M20.5481 1.04411L0.74975 7.04472C0.548733 7.10667 0.371612 7.21998 0.239593 7.3711C0.107574 7.52221 0.0262515 7.70472 0.0053617 7.89677C-0.0155281 8.08883 0.0249002 8.28228 0.121806 8.45398C0.218713 8.62568 0.36799 8.76835 0.551766 8.8649L7.70118 12.5753V19.996C7.70106 20.2106 7.77701 20.4194 7.91776 20.5916C8.05852 20.7638 8.25657 20.8902 8.48254 20.9519C8.70851 21.0137 8.95036 21.0075 9.17219 20.9344C9.39403 20.8613 9.58403 20.7251 9.71401 20.5461L13.5417 15.3256L20.3501 18.8659C20.5181 18.9513 20.7076 18.9955 20.9 18.9942C21.0924 18.9928 21.2811 18.9459 21.4476 18.8581C21.6141 18.7703 21.7525 18.6447 21.8494 18.4935C21.9462 18.3423 21.9981 18.1708 22 17.9958V1.99421C21.9988 1.8357 21.9565 1.67969 21.8765 1.53886C21.7965 1.39804 21.681 1.27638 21.5395 1.18379C21.398 1.0912 21.2345 1.03029 21.0622 1.00602C20.8899 0.981744 20.7138 0.994795 20.5481 1.04411ZM12.2218 13.5354L9.901 16.6957V12.5053L13.9377 9.88501L12.2218 13.5354Z" fill="white"/>
</svg>
