<svg width="24" height="24" viewBox="0 0 24 24" fill="none" xmlns="http://www.w3.org/2000/svg">
<path d="M3.23001 13.75C3.07908 13.9019 2.98092 14.0982 2.95001 14.31L2.01001 20.86C1.98682 21.0138 2.00005 21.1708 2.04864 21.3185C2.09723 21.4662 2.17981 21.6004 2.28974 21.7103C2.39968 21.8202 2.53389 21.9028 2.68157 21.9514C2.82925 22 2.98628 22.0132 3.14001 21.99L9.69001 21.05C9.90185 21.0191 10.0982 20.921 10.25 20.77L17.97 13.06L10.94 6.04004L3.23001 13.75Z" fill="white"/>
<path d="M13.5201 3.46005L12.3601 4.62005L19.3801 11.6401L20.5501 10.4801C25.183 5.82305 18.1563 -1.17615 13.5201 3.46005Z" fill="white"/>
</svg>
