<svg width="24" height="20" viewBox="0 0 24 20" fill="none" xmlns="http://www.w3.org/2000/svg">
<path d="M12.0004 8.70117C11.3758 8.70117 10.7651 8.88641 10.2457 9.23346C9.72633 9.58051 9.32151 10.0738 9.08246 10.6509C8.84341 11.228 8.78086 11.8631 8.90273 12.4758C9.0246 13.0884 9.32541 13.6512 9.76711 14.0929C10.2088 14.5346 10.7716 14.8354 11.3843 14.9573C11.9969 15.0792 12.632 15.0166 13.2091 14.7776C13.7862 14.5385 14.2795 14.1337 14.6265 13.6143C14.9736 13.0949 15.1588 12.4843 15.1588 11.8596C15.1559 11.0228 14.8222 10.2212 14.2305 9.62951C13.6388 9.03783 12.8372 8.70412 12.0004 8.70117Z" fill="#1CBBFF"/>
<path d="M20.6689 3.84009H17.3089L15.6737 1.51049C15.3996 1.09271 15.0256 0.749949 14.5856 0.513297C14.1455 0.276646 13.6533 0.153591 13.1537 0.155291H10.8465C10.3468 0.153591 9.85467 0.276646 9.41462 0.513297C8.97457 0.749949 8.60055 1.09271 8.32649 1.51049L6.74729 3.84009H3.38729C2.98117 3.83257 2.57767 3.90664 2.20071 4.05792C1.82374 4.2092 1.48097 4.4346 1.19271 4.72077C0.904445 5.00694 0.676556 5.34806 0.522543 5.72392C0.368529 6.09978 0.291524 6.50273 0.29609 6.90889V16.8097C0.299041 17.6138 0.619768 18.3841 1.18834 18.9526C1.75691 19.5212 2.52721 19.8419 3.33129 19.8449H20.6689C21.0718 19.8508 21.4718 19.7768 21.8459 19.627C22.2199 19.4773 22.5606 19.2548 22.8481 18.9725C23.1356 18.6903 23.3642 18.3537 23.5208 17.9825C23.6773 17.6112 23.7587 17.2126 23.7601 16.8097V6.90889C23.7647 6.50273 23.6877 6.09978 23.5336 5.72392C23.3796 5.34806 23.1517 5.00694 22.8635 4.72077C22.5752 4.4346 22.2324 4.2092 21.8555 4.05792C21.4785 3.90664 21.075 3.83257 20.6689 3.84009ZM12.0001 16.1601C11.1534 16.1601 10.3258 15.9089 9.62198 15.4383C8.91816 14.9677 8.36979 14.2988 8.0463 13.5164C7.72281 12.7339 7.63874 11.8731 7.80474 11.0429C7.97073 10.2127 8.37932 9.45034 8.97879 8.85244C9.57825 8.25455 10.3416 7.84795 11.1723 7.68414C12.003 7.52032 12.8636 7.60665 13.6451 7.93219C14.4267 8.25773 15.0941 8.80784 15.5629 9.5129C16.0317 10.2179 16.2807 11.0462 16.2785 11.8929C16.2755 13.0257 15.8235 14.111 15.0214 14.9109C14.2194 15.7109 13.1329 16.1601 12.0001 16.1601Z" fill="#1CBBFF"/>
</svg>
