<svg width="24" height="24" viewBox="0 0 24 24" fill="none" xmlns="http://www.w3.org/2000/svg">
<path d="M7.10426 8.28436H15.3887C16.0392 8.28436 16.5684 7.75514 16.5684 7.10466V0H5.92456V7.10466C5.92456 7.75514 6.45378 8.28436 7.10426 8.28436ZM13.5559 3.71564C13.5559 3.32733 13.8707 3.01252 14.259 3.01252C14.6473 3.01252 14.9621 3.32733 14.9621 3.71564V5.97502C14.9621 6.36333 14.6473 6.67814 14.259 6.67814C13.8707 6.67814 13.5559 6.36333 13.5559 5.97502V3.71564Z" fill="white"/>
<path d="M16.8949 14.209H7.10426C6.45378 14.209 5.92456 14.7382 5.92456 15.3886V23.9996H18.0746V15.3886C18.0746 14.7382 17.5454 14.209 16.8949 14.209Z" fill="white"/>
<path d="M23.794 4.72472L19.2753 0.205969C19.1434 0.0740625 18.9646 0 18.7781 0H17.975V7.10466C17.975 8.53055 16.815 9.69061 15.3891 9.69061H7.10466C5.67877 9.69061 4.5187 8.53055 4.5187 7.10466V0H2.58591C1.16006 0 0 1.16006 0 2.58595V21.414C0 22.8399 1.16006 24 2.58591 24H4.5187V15.3891C4.5187 13.9632 5.67877 12.8032 7.10466 12.8032H16.8953C18.3211 12.8032 19.4812 13.9632 19.4812 15.3891V24H21.414C22.8399 24 24 22.8399 24 21.414V5.22188C24 5.03541 23.9259 4.85653 23.794 4.72472Z" fill="white"/>
</svg>
