<svg width="24" height="24" viewBox="0 0 24 24" fill="none" xmlns="http://www.w3.org/2000/svg">
<path d="M13.5038 20.9972C7.70695 20.9972 3.00762 16.2979 3.00762 10.501C3.00762 4.70411 7.7069 0.00488281 13.5038 0.00488281C19.3007 0.00488281 24 4.70416 24 10.5011C24 16.298 19.3007 20.9972 13.5038 20.9972ZM13.5038 3.00381C9.36317 3.00381 6.00654 6.36043 6.00654 10.5011C6.00654 14.6417 9.36317 17.9983 13.5038 17.9983C17.6445 17.9983 21.0011 14.6417 21.0011 10.5011C21.0011 6.36043 17.6444 3.00381 13.5038 3.00381Z" fill="#A5A5A5"/>
<path d="M1.50815 23.9962C1.10958 23.9985 0.726507 23.842 0.443546 23.5613C-0.144446 22.9781 -0.148323 22.0288 0.434863 21.4408C0.437757 21.4379 0.440651 21.435 0.443546 21.4321L6.08149 15.7942C6.69015 15.2062 7.66023 15.223 8.24823 15.8316C8.83622 16.4403 8.81942 17.4104 8.21076 17.9984L2.57276 23.5613C2.2898 23.842 1.90673 23.9985 1.50815 23.9962Z" fill="#A5A5A5"/>
</svg>
