<svg width="21" height="20" viewBox="0 0 21 20" fill="none" xmlns="http://www.w3.org/2000/svg">
<path d="M19.6801 0.0499629L1.68006 6.04996C1.4973 6.11191 1.33627 6.22521 1.21624 6.37631C1.09622 6.52741 1.02228 6.7099 1.00329 6.90193C0.984295 7.09396 1.02105 7.2874 1.10916 7.45908C1.19726 7.63077 1.33298 7.77342 1.50006 7.86996L8.00006 11.58V19C7.99995 19.2145 8.06901 19.4233 8.19698 19.5955C8.32494 19.7677 8.50501 19.894 8.71045 19.9558C8.9159 20.0175 9.13577 20.0114 9.33746 19.9383C9.53914 19.8652 9.71189 19.729 9.83006 19.55L13.3101 14.33L19.5001 17.87C19.6528 17.9554 19.825 17.9996 20 17.9982C20.1749 17.9968 20.3465 17.9499 20.4978 17.8622C20.6492 17.7744 20.7751 17.6487 20.8631 17.4976C20.9512 17.3464 20.9984 17.1749 21.0001 17V0.999963C20.999 0.841474 20.9605 0.685478 20.8878 0.544668C20.815 0.403858 20.71 0.282212 20.5814 0.18963C20.4528 0.0970475 20.3041 0.0361436 20.1475 0.0118739C19.9908 -0.0123957 19.8307 0.000654597 19.6801 0.0499629ZM12.1101 12.54L10.0001 15.7V11.51L13.6701 8.88996L12.1101 12.54Z" fill="#A5A5A5"/>
</svg>
