<svg width="24" height="22" viewBox="0 0 24 22" fill="none" xmlns="http://www.w3.org/2000/svg">
<path d="M21.9075 7.88036C21.4699 7.81679 21.0522 7.65531 20.6856 7.40795C20.3191 7.16059 20.013 6.83372 19.7903 6.45168C19.5675 6.06963 19.4339 5.64227 19.3992 5.2014C19.3645 4.76053 19.4297 4.31752 19.59 3.90536C19.6919 3.6359 19.7069 3.34132 19.6329 3.0629C19.559 2.78449 19.3997 2.5362 19.1775 2.35286C18.1965 1.52911 17.0799 0.88199 15.8775 0.440357C15.6037 0.338645 15.3048 0.325936 15.0233 0.404043C14.7419 0.48215 14.4923 0.647087 14.31 0.875357C14.0357 1.2261 13.6852 1.50977 13.2849 1.70487C12.8847 1.89996 12.4453 2.00135 12 2.00135C11.5548 2.00135 11.1153 1.89996 10.7151 1.70487C10.3149 1.50977 9.96431 1.2261 9.69002 0.875357C9.50778 0.647087 9.25816 0.48215 8.9767 0.404043C8.69525 0.325936 8.39633 0.338645 8.12252 0.440357C7.01227 0.848089 5.97421 1.43041 5.04752 2.16536C4.81392 2.35028 4.64567 2.60513 4.5674 2.8926C4.48912 3.18006 4.50493 3.48503 4.61252 3.76286C4.78558 4.18592 4.85709 4.64366 4.8213 5.09936C4.7855 5.55505 4.64341 5.99601 4.40642 6.38687C4.16942 6.77773 3.84412 7.1076 3.45661 7.35004C3.0691 7.59247 2.63017 7.7407 2.17502 7.78286C1.87952 7.81445 1.60198 7.94009 1.38325 8.14126C1.16452 8.34244 1.01616 8.60853 0.960016 8.90036C0.820364 9.59163 0.750016 10.2951 0.750016 11.0004C0.74899 11.5908 0.796651 12.1803 0.892516 12.7629C0.940227 13.064 1.08583 13.3411 1.3068 13.5512C1.52778 13.7614 1.81182 13.8928 2.11502 13.9254C2.58016 13.969 3.02808 14.1234 3.42129 14.3757C3.8145 14.628 4.14156 14.9708 4.37509 15.3755C4.60862 15.7801 4.74182 16.2348 4.76356 16.7015C4.78529 17.1682 4.69493 17.6333 4.50002 18.0579C4.37246 18.334 4.34082 18.6449 4.41012 18.9411C4.47942 19.2373 4.64568 19.5019 4.88252 19.6929C5.8576 20.5016 6.96345 21.1383 8.15252 21.5754C8.30457 21.628 8.46411 21.6559 8.62502 21.6579C8.84564 21.6574 9.06294 21.604 9.25869 21.5022C9.45443 21.4004 9.62292 21.2532 9.75002 21.0729C10.0173 20.6834 10.3757 20.3651 10.7939 20.1455C11.2121 19.9259 11.6776 19.8117 12.15 19.8129C12.6077 19.8134 13.0589 19.9209 13.4678 20.1266C13.8766 20.3323 14.2318 20.6307 14.505 20.9979C14.6867 21.2421 14.9442 21.4195 15.2372 21.5022C15.5302 21.585 15.8423 21.5685 16.125 21.4554C17.2123 21.0178 18.2245 20.413 19.125 19.6629C19.3512 19.4758 19.5123 19.2219 19.5851 18.9375C19.6579 18.6532 19.6386 18.3531 19.53 18.0804C19.3536 17.6627 19.2767 17.2098 19.3053 16.7574C19.334 16.305 19.4674 15.8654 19.6951 15.4733C19.9227 15.0813 20.2384 14.7476 20.6171 14.4984C20.9959 14.2493 21.4274 14.0916 21.8775 14.0379C22.1694 13.9975 22.4409 13.8653 22.6526 13.6603C22.8643 13.4553 23.0052 13.1883 23.055 12.8979C23.1755 12.2723 23.2407 11.6373 23.25 11.0004C23.2502 10.3285 23.1874 9.65804 23.0625 8.99786C23.0119 8.71383 22.873 8.45299 22.6657 8.25238C22.4583 8.05177 22.1931 7.9216 21.9075 7.88036ZM15.75 11.0004C15.75 11.742 15.5301 12.4671 15.118 13.0837C14.706 13.7004 14.1203 14.1811 13.4351 14.4649C12.7499 14.7487 11.9959 14.823 11.2684 14.6783C10.541 14.5336 9.87281 14.1765 9.34837 13.652C8.82392 13.1276 8.46677 12.4594 8.32207 11.7319C8.17738 11.0045 8.25164 10.2505 8.53547 9.56529C8.8193 8.88007 9.29994 8.2944 9.91663 7.88235C10.5333 7.47029 11.2583 7.25036 12 7.25036C12.9946 7.25036 13.9484 7.64545 14.6517 8.34871C15.3549 9.05197 15.75 10.0058 15.75 11.0004Z" fill="#A5A5A5"/>
</svg>
