<svg width="27" height="25" viewBox="0 0 27 25" fill="none" xmlns="http://www.w3.org/2000/svg">
<path d="M24.6838 8.35944C24.1732 8.28528 23.6859 8.09689 23.2583 7.8083C22.8306 7.51971 22.4735 7.13836 22.2137 6.69264C21.9538 6.24693 21.7978 5.74834 21.7574 5.23399C21.7169 4.71964 21.793 4.2028 21.98 3.72194C22.0989 3.40758 22.1164 3.06389 22.0301 2.73908C21.9438 2.41426 21.758 2.12459 21.4988 1.91069C20.3543 0.949647 19.0516 0.194678 17.6488 -0.32056C17.3293 -0.439224 16.9806 -0.454051 16.6522 -0.362926C16.3239 -0.271802 16.0326 -0.0793748 15.82 0.18694C15.5 0.596137 15.091 0.92709 14.6241 1.1547C14.1571 1.38231 13.6445 1.5006 13.125 1.5006C12.6056 1.5006 12.0929 1.38231 11.626 1.1547C11.159 0.92709 10.75 0.596137 10.43 0.18694C10.2174 -0.0793748 9.92618 -0.271802 9.59782 -0.362926C9.26946 -0.454051 8.92071 -0.439224 8.60127 -0.32056C7.30598 0.155127 6.09491 0.834506 5.01377 1.69194C4.74125 1.90768 4.54495 2.20501 4.45363 2.54039C4.36231 2.87576 4.38075 3.23156 4.50627 3.55569C4.70818 4.04927 4.7916 4.5833 4.74985 5.11494C4.70809 5.64658 4.54231 6.16104 4.26582 6.61704C3.98933 7.07304 3.60981 7.4579 3.15771 7.74073C2.70562 8.02357 2.19353 8.19651 1.66252 8.24569C1.31778 8.28255 0.993976 8.42912 0.738791 8.66383C0.483607 8.89854 0.310521 9.20898 0.245019 9.54944C0.0820919 10.3559 1.89354e-05 11.1767 1.89354e-05 11.9994C-0.00117858 12.6883 0.0544265 13.376 0.166269 14.0557C0.221932 14.4071 0.391797 14.7303 0.649602 14.9755C0.907406 15.2206 1.23879 15.374 1.59252 15.4119C2.13519 15.4629 2.65777 15.643 3.11651 15.9374C3.57526 16.2317 3.95682 16.6317 4.22927 17.1037C4.50172 17.5758 4.65713 18.1063 4.68249 18.6508C4.70784 19.1952 4.60241 19.7378 4.37502 20.2332C4.22621 20.5554 4.18929 20.9181 4.27014 21.2637C4.35099 21.6093 4.54496 21.9179 4.82127 22.1407C5.95887 23.0843 7.24902 23.827 8.63627 24.3369C8.81367 24.3984 8.9998 24.4309 9.18752 24.4332C9.44492 24.4326 9.69843 24.3704 9.9268 24.2516C10.1552 24.1329 10.3517 23.9611 10.5 23.7507C10.8119 23.2963 11.2299 22.9249 11.7179 22.6688C12.2058 22.4126 12.7489 22.2794 13.3 22.2807C13.834 22.2814 14.3604 22.4067 14.8374 22.6467C15.3144 22.8867 15.7288 23.2348 16.0475 23.6632C16.2595 23.9482 16.5599 24.1551 16.9017 24.2516C17.2436 24.3482 17.6077 24.3289 17.9375 24.1969C19.206 23.6864 20.3869 22.9808 21.4375 22.1057C21.7014 21.8875 21.8894 21.5912 21.9743 21.2595C22.0592 20.9277 22.0367 20.5776 21.91 20.2594C21.7042 19.7722 21.6145 19.2438 21.6479 18.716C21.6813 18.1882 21.837 17.6753 22.1026 17.2179C22.3682 16.7605 22.7364 16.3712 23.1783 16.0805C23.6202 15.7899 24.1236 15.6059 24.6488 15.5432C24.9893 15.4961 25.306 15.3418 25.553 15.1027C25.8 14.8636 25.9644 14.552 26.0225 14.2132C26.163 13.4834 26.2392 12.7426 26.25 11.9994C26.2502 11.2156 26.177 10.4334 26.0313 9.66319C25.9722 9.33183 25.8102 9.02751 25.5683 8.79346C25.3264 8.55942 25.0169 8.40755 24.6838 8.35944ZM17.5 11.9994C17.5 12.8647 17.2434 13.7106 16.7627 14.4301C16.282 15.1495 15.5987 15.7103 14.7993 16.0414C13.9998 16.3725 13.1202 16.4592 12.2715 16.2904C11.4228 16.1216 10.6433 15.7049 10.0314 15.093C9.41957 14.4812 9.00289 13.7016 8.83408 12.853C8.66527 12.0043 8.75191 11.1246 9.08305 10.3252C9.41418 9.52577 9.97494 8.84249 10.6944 8.36176C11.4139 7.88103 12.2597 7.62444 13.125 7.62444C14.2853 7.62444 15.3981 8.08538 16.2186 8.90585C17.0391 9.72632 17.5 10.8391 17.5 11.9994Z" fill="#A5A5A5"/>
</svg>
