<svg width="28" height="28" viewBox="0 0 28 28" fill="none" xmlns="http://www.w3.org/2000/svg">
<path d="M13.3467 4.84134L12.775 3.12634C12.6947 2.8959 12.5451 2.69594 12.3467 2.55391C12.1483 2.41187 11.9107 2.33471 11.6667 2.33301H5.83337C4.90595 2.33572 4.01728 2.70533 3.36149 3.36113C2.7057 4.01692 2.33608 4.90558 2.33337 5.83301V8.16634H10.0217L13.3467 4.84134Z" fill="#A5A5A5"/>
<path d="M22.1667 5.83301H15.645L11.3284 10.1613C11.1059 10.3763 10.8094 10.4974 10.5 10.4997H2.33337V19.833C2.33608 20.7604 2.7057 21.6491 3.36149 22.3049C4.01728 22.9607 4.90595 23.3303 5.83337 23.333H10.2784C9.65399 22.2727 9.3275 21.0635 9.33337 19.833C9.33337 17.9765 10.0709 16.196 11.3836 14.8833C12.6964 13.5705 14.4769 12.833 16.3334 12.833C18.1899 12.833 19.9704 13.5705 21.2831 14.8833C22.5959 16.196 23.3334 17.9765 23.3334 19.833C23.336 21.0578 23.014 22.2615 22.4 23.3213C23.2848 23.261 24.1139 22.8675 24.72 22.2202C25.3262 21.5729 25.6645 20.7198 25.6667 19.833V9.33301C25.664 8.40558 25.2944 7.51692 24.6386 6.86113C23.9828 6.20533 23.0941 5.83572 22.1667 5.83301Z" fill="#A5A5A5"/>
<path d="M16.3333 14C15.1796 14 14.0518 14.3421 13.0925 14.9831C12.1332 15.6241 11.3855 16.5351 10.944 17.601C10.5025 18.6669 10.387 19.8398 10.6121 20.9714C10.8372 22.1029 11.3927 23.1423 12.2085 23.9581C13.0244 24.7739 14.0638 25.3295 15.1953 25.5546C16.3269 25.7797 17.4998 25.6641 18.5657 25.2226C19.6316 24.7811 20.5426 24.0334 21.1836 23.0742C21.8246 22.1149 22.1667 20.9871 22.1667 19.8333C22.1648 18.2868 21.5497 16.8041 20.4561 15.7106C19.3625 14.617 17.8799 14.0018 16.3333 14ZM18.42 17.0401L12.9508 20.6863C12.7728 19.9873 12.8161 19.2503 13.0747 18.577C13.3333 17.9036 13.7945 17.3272 14.3947 16.9271C14.9948 16.527 15.7043 16.323 16.4253 16.3432C17.1463 16.3634 17.8433 16.6069 18.42 17.0401ZM14.2468 22.6267L19.7161 18.9805C19.894 19.6795 19.8507 20.4165 19.5921 21.0898C19.3334 21.7631 18.8722 22.3396 18.272 22.7397C17.6719 23.1398 16.9623 23.3437 16.2413 23.3235C15.5203 23.3032 14.8234 23.0597 14.2466 22.6266L14.2468 22.6267Z" fill="#A5A5A5"/>
</svg>
