<svg width="20" height="20" viewBox="0 0 20 20" fill="none" xmlns="http://www.w3.org/2000/svg">
<path d="M15 0H5C3.67406 0.000477079 2.40257 0.527415 1.46499 1.46499C0.527415 2.40257 0.000477079 3.67406 0 5V15C0.000477079 16.3259 0.527415 17.5974 1.46499 18.535C2.40257 19.4726 3.67406 19.9995 5 20H15C16.3259 19.9995 17.5974 19.4726 18.535 18.535C19.4726 17.5974 19.9995 16.3259 20 15V5C19.9995 3.67406 19.4726 2.40257 18.535 1.46499C17.5974 0.527415 16.3259 0.000477079 15 0ZM13 17H7C6.73478 17 6.48043 16.8946 6.29289 16.7071C6.10536 16.5196 6 16.2652 6 16C6 15.7348 6.10536 15.4804 6.29289 15.2929C6.48043 15.1054 6.73478 15 7 15H13C13.2652 15 13.5196 15.1054 13.7071 15.2929C13.8946 15.4804 14 15.7348 14 16C14 16.2652 13.8946 16.5196 13.7071 16.7071C13.5196 16.8946 13.2652 17 13 17ZM17 11C16.9992 11.265 16.8936 11.5189 16.7062 11.7062C16.5189 11.8936 16.265 11.9992 16 12H14V13C13.9992 13.265 13.8936 13.5189 13.7062 13.7062C13.5189 13.8936 13.265 13.9992 13 14H7C6.73503 13.9992 6.48113 13.8936 6.29377 13.7062C6.1064 13.5189 6.00079 13.265 6 13V12H4C3.73503 11.9992 3.48113 11.8936 3.29377 11.7062C3.1064 11.5189 3.00079 11.265 3 11V4C3.00079 3.73503 3.1064 3.48113 3.29377 3.29377C3.48113 3.1064 3.73503 3.00079 4 3H16C16.265 3.00079 16.5189 3.1064 16.7062 3.29377C16.8936 3.48113 16.9992 3.73503 17 4V11Z" fill="#A5A5A5"/>
</svg>
